<svg width="48" height="50" viewBox="0 0 48 50" fill="none" xmlns="http://www.w3.org/2000/svg">
<path d="M42.9333 0.836021C42.8513 0.705178 42.7419 0.593696 42.6126 0.509278C42.4833 0.42486 42.3372 0.369519 42.1845 0.347079C42.0317 0.324639 41.8759 0.335634 41.7278 0.379305C41.5797 0.422977 41.4428 0.498283 41.3266 0.600021C38.3666 3.18669 35.6 5.24669 32.86 6.88669C29.2066 9.08002 25.72 10.6867 22.2066 11.8134C19.5028 12.6435 16.9018 13.7774 14.4533 15.1934C9.51998 17.9067 6.07998 22.6134 5.02664 28.1C3.99998 33.4134 5.31998 38.8733 8.65331 43.1734C6.29331 44.6933 3.79331 46.14 1.11998 47.5267C0.869507 47.6582 0.680839 47.8829 0.59476 48.1524C0.508682 48.4218 0.532109 48.7144 0.659977 48.9667C0.91331 49.4674 1.59331 49.6874 2.09331 49.4267C4.93861 47.9649 7.70469 46.3537 10.38 44.6C10.4821 44.6403 10.5867 44.6737 10.6933 44.7C16.3663 46.2045 22.3614 45.9605 27.8933 44C32.0313 42.5373 35.7875 40.163 38.884 37.0526C41.9805 33.9422 44.338 30.1754 45.7821 26.0309C47.2262 21.8864 47.72 17.4702 47.2269 13.109C46.7338 8.74792 45.2664 4.55347 42.9333 0.836021ZM40 32.4667C33.6666 41.08 23.1 45.1 12.74 42.9734C15.1052 41.2996 17.3712 39.4899 19.5266 37.5534C25.02 32.6 29.76 26.7867 34.02 19.7667C34.0926 19.6467 34.141 19.5137 34.1622 19.375C34.1834 19.2364 34.1772 19.095 34.1437 18.9588C34.1103 18.8226 34.0504 18.6943 33.9674 18.5813C33.8844 18.4683 33.7799 18.3727 33.66 18.3C33.54 18.2274 33.407 18.179 33.2683 18.1578C33.1297 18.1366 32.9883 18.1428 32.8521 18.1763C32.7159 18.2097 32.5876 18.2696 32.4746 18.3526C32.3616 18.4356 32.266 18.5401 32.1933 18.66C28.04 25.4934 23.4333 31.16 18.0933 35.9667C15.6772 38.14 13.1181 40.1489 10.4333 41.98C7.40664 38.1534 6.19998 33.26 7.11998 28.5C8.05998 23.6334 11.1133 19.46 15.5 17.0467C15.5009 17.0467 15.5017 17.0465 15.5025 17.0462C15.5033 17.0458 15.5041 17.0454 15.5047 17.0447C15.5053 17.0441 15.5058 17.0434 15.5061 17.0426C15.5065 17.0418 15.5066 17.0409 15.5066 17.04C15.5133 17.04 15.5133 17.0334 15.52 17.0334C17.8296 15.692 20.2857 14.6205 22.84 13.84H22.8533C26.5266 12.6667 30.1533 10.9867 33.9533 8.71335C36.5 7.18669 39.06 5.32002 41.76 3.03335C47.0466 12.356 46.4 23.776 40 32.4667Z" fill="white"/>
</svg>
