<svg width="54" height="54" viewBox="0 0 54 54" fill="none" xmlns="http://www.w3.org/2000/svg">
<path d="M53.25 27C53.25 12.5259 41.4741 0.75 27 0.75C12.5925 0.75 0.75 12.4566 0.75 27C0.75 41.4741 12.5259 53.25 27 53.25C41.4075 53.25 53.25 41.5434 53.25 27ZM51.375 27C51.375 33.3834 48.9047 39.1987 44.8744 43.5488L40.5947 39.2691C41.2069 38.9297 44.5434 37.0763 44.3306 37.1944C44.6278 37.0294 44.8125 36.7153 44.8125 36.375V17.625C44.8125 17.3269 44.6334 16.9734 44.3306 16.8056L27.4556 7.43063C27.1716 7.27313 26.8284 7.27313 26.5444 7.43063C23.7797 8.96625 31.9903 4.40531 15.1097 13.7841L10.4513 9.12562C14.8012 5.09531 20.6166 2.625 27 2.625C40.44 2.625 51.375 13.56 51.375 27ZM11.0625 35.8237V19.2178L26.0625 27.5513V44.1562L11.0625 35.8237ZM27 9.3225L41.9447 17.625L29.4206 24.5831L27.1631 25.8375L16.4878 15.1622C18.0253 14.3081 26.9053 9.375 27 9.3225ZM42.9375 35.8237C42.6394 35.9897 38.9953 38.0138 39.2166 37.8909L28.5413 27.2156L30.3309 26.2219L42.9375 19.2178V35.8237ZM21.6047 22.9303L12.0553 17.625L14.7834 16.1091L21.6047 22.9303ZM27.9375 29.2631L37.5113 38.8369L27.9375 44.1562V29.2631ZM2.625 27C2.625 20.6166 5.09531 14.8012 9.12562 10.4513L13.4053 14.7309L9.67031 16.8056C9.37031 16.9725 9.1875 17.325 9.1875 17.625V36.375C9.1875 36.7153 9.37219 37.0294 9.66937 37.1944L26.5444 46.5694C26.85 46.7391 27.2016 46.7109 27.4556 46.5694L38.8903 40.2159L43.5488 44.8744C39.1987 48.9047 33.3834 51.375 27 51.375C13.56 51.375 2.625 40.44 2.625 27Z" fill="white"/>
</svg>
