<svg width="40" height="56" viewBox="0 0 40 56" fill="none" xmlns="http://www.w3.org/2000/svg">
<path d="M37.9865 26.0856C37.1891 23.3619 36.3651 20.5457 35.9316 16.6465C35.8858 16.2336 35.5737 15.8999 35.1648 15.8271C34.7574 15.7525 34.3477 15.9589 34.1614 16.3306C34.1399 16.3737 32.4498 19.7332 30.4357 22.4716C30.4613 17.0754 29.1402 13.4778 27.8562 9.98283C26.8898 7.35165 25.977 4.86643 25.6191 1.64649C25.588 1.36496 25.4314 1.11277 25.1929 0.960333C24.9544 0.808364 24.66 0.771708 24.3909 0.860583C23.935 1.01255 13.7703 4.56118 11.031 18.7417C9.449 16.5472 7.40966 14.9579 4.94366 14.0011C4.66213 13.8922 4.34628 13.9251 4.09316 14.0891C3.8405 14.2539 3.68206 14.5294 3.66791 14.8306C3.66566 14.8842 3.40194 20.2135 2.21544 24.9601C1.9985 25.8289 1.781 26.5961 1.57597 27.3208C0.898063 29.7144 0.3125 31.7812 0.3125 35.5001C0.3125 46.356 9.14412 55.1876 20 55.1876C30.8559 55.1876 39.6875 46.356 39.6875 35.5001C39.6875 31.8993 38.8614 29.0753 37.9865 26.0856ZM10.8928 44.2052C10.8928 41.2201 11.3987 38.578 12.5111 35.8611C13.1084 37.0303 13.9453 38.4722 14.8173 39.3437C15.1048 39.6326 15.546 39.7021 15.9091 39.5145C16.2717 39.3282 16.4722 38.9285 16.4049 38.5266C15.8464 35.1758 16.7926 33.2051 17.7946 31.1186C18.2712 30.1275 18.7582 29.1131 19.0873 27.9472C20.7202 29.6523 23.4325 33.2939 22.8199 38.1961C22.7613 38.6639 23.0593 39.1024 23.5162 39.2201C23.9708 39.3387 24.4454 39.0983 24.6207 38.6602C25.2548 37.0745 26.4308 35.6403 27.4383 34.7825C27.5528 35.8917 27.7624 37.4329 28.1309 38.9084C28.2513 39.3895 28.3712 39.8143 28.4852 40.2157C28.8464 41.4911 29.1073 42.4125 29.1073 44.2051C29.1073 48.9129 25.5166 52.7979 20.9301 53.2652C20.6202 53.2814 20.3141 53.3123 20.0002 53.3123C19.6863 53.3123 19.3802 53.2814 19.0703 53.2652C14.4838 52.7979 10.8928 48.913 10.8928 44.2052ZM28.4991 51.15C30.0494 49.2561 30.9822 46.838 30.9822 44.2052C30.9822 42.1526 30.6609 41.0183 30.2892 39.705C30.1802 39.3204 30.0648 38.9139 29.95 38.4534C29.3251 35.955 29.1855 33.1396 29.1841 33.1117C29.1695 32.8105 29.0115 32.5345 28.7589 32.3701C28.5062 32.2063 28.1904 32.1724 27.9084 32.2822C26.9658 32.6479 25.734 33.6408 24.6643 34.967C23.8568 29.0797 19.2878 25.5504 19.0594 25.3773C18.7898 25.1731 18.4323 25.1296 18.1233 25.2638C17.8134 25.397 17.5992 25.6863 17.5621 26.0214C17.3808 27.6501 16.761 28.9406 16.1046 30.307C15.4024 31.7686 14.637 33.363 14.4232 35.4691C13.9439 34.5756 13.5539 33.7177 13.3658 33.265C13.2253 32.9263 12.8998 32.7005 12.5331 32.6878C12.1614 32.6878 11.8258 32.8772 11.6615 33.2055C9.83319 36.8621 9.01794 40.2545 9.01794 44.2051C9.01794 46.8378 9.95075 49.2559 11.5011 51.1498C5.95766 48.1272 2.18759 42.2458 2.18759 35.4997C2.18759 32.0413 2.71353 30.1832 3.38009 27.8312C3.59019 27.0892 3.81219 26.3041 4.03466 25.4147C4.90766 21.922 5.29447 18.2251 5.44962 16.2851C7.68669 17.4538 9.45734 19.3228 10.724 21.8566C10.9094 22.2269 11.3168 22.4328 11.7242 22.3606C12.1325 22.2891 12.4452 21.9582 12.4937 21.5466C13.9554 9.12061 21.167 4.44455 23.9241 3.09371C24.3832 5.9648 25.2525 8.33143 26.0962 10.629C27.5848 14.682 28.9906 18.5098 28.4409 25.1094C28.4083 25.5013 28.624 25.8721 28.9806 26.0377C29.3377 26.2035 29.7601 26.1284 30.038 25.85C31.7166 24.1714 33.3645 21.5896 34.4728 19.6762C34.9498 22.3844 35.598 24.5995 36.1872 26.6122C37.0592 29.5932 37.8127 32.1676 37.8127 35.4997C37.8127 42.2457 34.0425 48.1274 28.4991 51.15Z" fill="white"/>
</svg>
